G04 #@! TF.GenerationSoftware,KiCad,Pcbnew,8.0.6*
G04 #@! TF.CreationDate,2024-11-08T07:03:01-05:00*
G04 #@! TF.ProjectId,distpedal,64697374-7065-4646-916c-2e6b69636164,rev?*
G04 #@! TF.SameCoordinates,Original*
G04 #@! TF.FileFunction,Legend,Top*
G04 #@! TF.FilePolarity,Positive*
%FSLAX46Y46*%
G04 Gerber Fmt 4.6, Leading zero omitted, Abs format (unit mm)*
G04 Created by KiCad (PCBNEW 8.0.6) date 2024-11-08 07:03:01*
%MOMM*%
%LPD*%
G01*
G04 APERTURE LIST*
G04 Aperture macros list*
%AMRoundRect*
0 Rectangle with rounded corners*
0 $1 Rounding radius*
0 $2 $3 $4 $5 $6 $7 $8 $9 X,Y pos of 4 corners*
0 Add a 4 corners polygon primitive as box body*
4,1,4,$2,$3,$4,$5,$6,$7,$8,$9,$2,$3,0*
0 Add four circle primitives for the rounded corners*
1,1,$1+$1,$2,$3*
1,1,$1+$1,$4,$5*
1,1,$1+$1,$6,$7*
1,1,$1+$1,$8,$9*
0 Add four rect primitives between the rounded corners*
20,1,$1+$1,$2,$3,$4,$5,0*
20,1,$1+$1,$4,$5,$6,$7,0*
20,1,$1+$1,$6,$7,$8,$9,0*
20,1,$1+$1,$8,$9,$2,$3,0*%
%AMHorizOval*
0 Thick line with rounded ends*
0 $1 width*
0 $2 $3 position (X,Y) of the first rounded end (center of the circle)*
0 $4 $5 position (X,Y) of the second rounded end (center of the circle)*
0 Add line between two ends*
20,1,$1,$2,$3,$4,$5,0*
0 Add two circle primitives to create the rounded ends*
1,1,$1,$2,$3*
1,1,$1,$4,$5*%
G04 Aperture macros list end*
%ADD10C,0.200000*%
%ADD11C,0.150000*%
%ADD12C,0.100000*%
%ADD13C,0.300000*%
%ADD14C,0.120000*%
%ADD15C,0.152400*%
%ADD16R,2.500000X1.900000*%
%ADD17C,1.700000*%
%ADD18C,1.600000*%
%ADD19O,2.400000X2.400000*%
%ADD20C,2.400000*%
%ADD21O,1.600000X1.600000*%
%ADD22O,3.600000X2.200000*%
%ADD23R,3.600000X2.200000*%
%ADD24O,2.000000X3.500000*%
%ADD25O,3.500000X2.000000*%
%ADD26HorizOval,2.000000X0.530330X0.530330X-0.530330X-0.530330X0*%
%ADD27C,1.371600*%
%ADD28R,1.371600X1.371600*%
%ADD29O,2.200000X2.200000*%
%ADD30R,2.200000X2.200000*%
%ADD31R,1.600000X1.600000*%
%ADD32RoundRect,0.875000X-0.875000X0.875000X-0.875000X-0.875000X0.875000X-0.875000X0.875000X0.875000X0*%
%ADD33RoundRect,0.750000X-1.000000X0.750000X-1.000000X-0.750000X1.000000X-0.750000X1.000000X0.750000X0*%
%ADD34R,4.000000X4.000000*%
G04 APERTURE END LIST*
D10*
X73390476Y-64669004D02*
X73390476Y-66288052D01*
X73390476Y-66288052D02*
X73295238Y-66478528D01*
X73295238Y-66478528D02*
X73200000Y-66573766D01*
X73200000Y-66573766D02*
X73009523Y-66669004D01*
X73009523Y-66669004D02*
X72723809Y-66669004D01*
X72723809Y-66669004D02*
X72533333Y-66573766D01*
X73390476Y-65907100D02*
X73200000Y-66002338D01*
X73200000Y-66002338D02*
X72819047Y-66002338D01*
X72819047Y-66002338D02*
X72628571Y-65907100D01*
X72628571Y-65907100D02*
X72533333Y-65811861D01*
X72533333Y-65811861D02*
X72438095Y-65621385D01*
X72438095Y-65621385D02*
X72438095Y-65049957D01*
X72438095Y-65049957D02*
X72533333Y-64859480D01*
X72533333Y-64859480D02*
X72628571Y-64764242D01*
X72628571Y-64764242D02*
X72819047Y-64669004D01*
X72819047Y-64669004D02*
X73200000Y-64669004D01*
X73200000Y-64669004D02*
X73390476Y-64764242D01*
X75200000Y-66002338D02*
X75200000Y-64954719D01*
X75200000Y-64954719D02*
X75104762Y-64764242D01*
X75104762Y-64764242D02*
X74914286Y-64669004D01*
X74914286Y-64669004D02*
X74533333Y-64669004D01*
X74533333Y-64669004D02*
X74342857Y-64764242D01*
X75200000Y-65907100D02*
X75009524Y-66002338D01*
X75009524Y-66002338D02*
X74533333Y-66002338D01*
X74533333Y-66002338D02*
X74342857Y-65907100D01*
X74342857Y-65907100D02*
X74247619Y-65716623D01*
X74247619Y-65716623D02*
X74247619Y-65526147D01*
X74247619Y-65526147D02*
X74342857Y-65335671D01*
X74342857Y-65335671D02*
X74533333Y-65240433D01*
X74533333Y-65240433D02*
X75009524Y-65240433D01*
X75009524Y-65240433D02*
X75200000Y-65145195D01*
X76152381Y-66002338D02*
X76152381Y-64669004D01*
X76152381Y-64002338D02*
X76057143Y-64097576D01*
X76057143Y-64097576D02*
X76152381Y-64192814D01*
X76152381Y-64192814D02*
X76247619Y-64097576D01*
X76247619Y-64097576D02*
X76152381Y-64002338D01*
X76152381Y-64002338D02*
X76152381Y-64192814D01*
X77104762Y-64669004D02*
X77104762Y-66002338D01*
X77104762Y-64859480D02*
X77200000Y-64764242D01*
X77200000Y-64764242D02*
X77390476Y-64669004D01*
X77390476Y-64669004D02*
X77676191Y-64669004D01*
X77676191Y-64669004D02*
X77866667Y-64764242D01*
X77866667Y-64764242D02*
X77961905Y-64954719D01*
X77961905Y-64954719D02*
X77961905Y-66002338D01*
X79961905Y-66002338D02*
X78819048Y-66002338D01*
X79390476Y-66002338D02*
X79390476Y-64002338D01*
X79390476Y-64002338D02*
X79200000Y-64288052D01*
X79200000Y-64288052D02*
X79009524Y-64478528D01*
X79009524Y-64478528D02*
X78819048Y-64573766D01*
D11*
X86084580Y-122404166D02*
X86132200Y-122451785D01*
X86132200Y-122451785D02*
X86179819Y-122594642D01*
X86179819Y-122594642D02*
X86179819Y-122689880D01*
X86179819Y-122689880D02*
X86132200Y-122832737D01*
X86132200Y-122832737D02*
X86036961Y-122927975D01*
X86036961Y-122927975D02*
X85941723Y-122975594D01*
X85941723Y-122975594D02*
X85751247Y-123023213D01*
X85751247Y-123023213D02*
X85608390Y-123023213D01*
X85608390Y-123023213D02*
X85417914Y-122975594D01*
X85417914Y-122975594D02*
X85322676Y-122927975D01*
X85322676Y-122927975D02*
X85227438Y-122832737D01*
X85227438Y-122832737D02*
X85179819Y-122689880D01*
X85179819Y-122689880D02*
X85179819Y-122594642D01*
X85179819Y-122594642D02*
X85227438Y-122451785D01*
X85227438Y-122451785D02*
X85275057Y-122404166D01*
X85179819Y-121499404D02*
X85179819Y-121975594D01*
X85179819Y-121975594D02*
X85656009Y-122023213D01*
X85656009Y-122023213D02*
X85608390Y-121975594D01*
X85608390Y-121975594D02*
X85560771Y-121880356D01*
X85560771Y-121880356D02*
X85560771Y-121642261D01*
X85560771Y-121642261D02*
X85608390Y-121547023D01*
X85608390Y-121547023D02*
X85656009Y-121499404D01*
X85656009Y-121499404D02*
X85751247Y-121451785D01*
X85751247Y-121451785D02*
X85989342Y-121451785D01*
X85989342Y-121451785D02*
X86084580Y-121499404D01*
X86084580Y-121499404D02*
X86132200Y-121547023D01*
X86132200Y-121547023D02*
X86179819Y-121642261D01*
X86179819Y-121642261D02*
X86179819Y-121880356D01*
X86179819Y-121880356D02*
X86132200Y-121975594D01*
X86132200Y-121975594D02*
X86084580Y-122023213D01*
X92529819Y-108116666D02*
X92053628Y-108449999D01*
X92529819Y-108688094D02*
X91529819Y-108688094D01*
X91529819Y-108688094D02*
X91529819Y-108307142D01*
X91529819Y-108307142D02*
X91577438Y-108211904D01*
X91577438Y-108211904D02*
X91625057Y-108164285D01*
X91625057Y-108164285D02*
X91720295Y-108116666D01*
X91720295Y-108116666D02*
X91863152Y-108116666D01*
X91863152Y-108116666D02*
X91958390Y-108164285D01*
X91958390Y-108164285D02*
X92006009Y-108211904D01*
X92006009Y-108211904D02*
X92053628Y-108307142D01*
X92053628Y-108307142D02*
X92053628Y-108688094D01*
X92529819Y-107164285D02*
X92529819Y-107735713D01*
X92529819Y-107449999D02*
X91529819Y-107449999D01*
X91529819Y-107449999D02*
X91672676Y-107545237D01*
X91672676Y-107545237D02*
X91767914Y-107640475D01*
X91767914Y-107640475D02*
X91815533Y-107735713D01*
X127454819Y-108116666D02*
X126978628Y-108449999D01*
X127454819Y-108688094D02*
X126454819Y-108688094D01*
X126454819Y-108688094D02*
X126454819Y-108307142D01*
X126454819Y-108307142D02*
X126502438Y-108211904D01*
X126502438Y-108211904D02*
X126550057Y-108164285D01*
X126550057Y-108164285D02*
X126645295Y-108116666D01*
X126645295Y-108116666D02*
X126788152Y-108116666D01*
X126788152Y-108116666D02*
X126883390Y-108164285D01*
X126883390Y-108164285D02*
X126931009Y-108211904D01*
X126931009Y-108211904D02*
X126978628Y-108307142D01*
X126978628Y-108307142D02*
X126978628Y-108688094D01*
X126454819Y-107783332D02*
X126454819Y-107164285D01*
X126454819Y-107164285D02*
X126835771Y-107497618D01*
X126835771Y-107497618D02*
X126835771Y-107354761D01*
X126835771Y-107354761D02*
X126883390Y-107259523D01*
X126883390Y-107259523D02*
X126931009Y-107211904D01*
X126931009Y-107211904D02*
X127026247Y-107164285D01*
X127026247Y-107164285D02*
X127264342Y-107164285D01*
X127264342Y-107164285D02*
X127359580Y-107211904D01*
X127359580Y-107211904D02*
X127407200Y-107259523D01*
X127407200Y-107259523D02*
X127454819Y-107354761D01*
X127454819Y-107354761D02*
X127454819Y-107640475D01*
X127454819Y-107640475D02*
X127407200Y-107735713D01*
X127407200Y-107735713D02*
X127359580Y-107783332D01*
X102614167Y-121000950D02*
X102757024Y-121048569D01*
X102757024Y-121048569D02*
X102995119Y-121048569D01*
X102995119Y-121048569D02*
X103090357Y-121000950D01*
X103090357Y-121000950D02*
X103137976Y-120953330D01*
X103137976Y-120953330D02*
X103185595Y-120858092D01*
X103185595Y-120858092D02*
X103185595Y-120762854D01*
X103185595Y-120762854D02*
X103137976Y-120667616D01*
X103137976Y-120667616D02*
X103090357Y-120619997D01*
X103090357Y-120619997D02*
X102995119Y-120572378D01*
X102995119Y-120572378D02*
X102804643Y-120524759D01*
X102804643Y-120524759D02*
X102709405Y-120477140D01*
X102709405Y-120477140D02*
X102661786Y-120429521D01*
X102661786Y-120429521D02*
X102614167Y-120334283D01*
X102614167Y-120334283D02*
X102614167Y-120239045D01*
X102614167Y-120239045D02*
X102661786Y-120143807D01*
X102661786Y-120143807D02*
X102709405Y-120096188D01*
X102709405Y-120096188D02*
X102804643Y-120048569D01*
X102804643Y-120048569D02*
X103042738Y-120048569D01*
X103042738Y-120048569D02*
X103185595Y-120096188D01*
X103518929Y-120048569D02*
X103757024Y-121048569D01*
X103757024Y-121048569D02*
X103947500Y-120334283D01*
X103947500Y-120334283D02*
X104137976Y-121048569D01*
X104137976Y-121048569D02*
X104376072Y-120048569D01*
X105280833Y-121048569D02*
X104709405Y-121048569D01*
X104995119Y-121048569D02*
X104995119Y-120048569D01*
X104995119Y-120048569D02*
X104899881Y-120191426D01*
X104899881Y-120191426D02*
X104804643Y-120286664D01*
X104804643Y-120286664D02*
X104709405Y-120334283D01*
X99852260Y-125956045D02*
X99395117Y-125956045D01*
X99623689Y-125956045D02*
X99623689Y-125156045D01*
X99623689Y-125156045D02*
X99547498Y-125270330D01*
X99547498Y-125270330D02*
X99471308Y-125346521D01*
X99471308Y-125346521D02*
X99395117Y-125384616D01*
X100195118Y-125956045D02*
X100195118Y-125156045D01*
X100195118Y-125156045D02*
X100461784Y-125727473D01*
X100461784Y-125727473D02*
X100728451Y-125156045D01*
X100728451Y-125156045D02*
X100728451Y-125956045D01*
X101109404Y-125956045D02*
X101109404Y-125156045D01*
X101109404Y-125156045D02*
X101299880Y-125156045D01*
X101299880Y-125156045D02*
X101414166Y-125194140D01*
X101414166Y-125194140D02*
X101490356Y-125270330D01*
X101490356Y-125270330D02*
X101528451Y-125346521D01*
X101528451Y-125346521D02*
X101566547Y-125498902D01*
X101566547Y-125498902D02*
X101566547Y-125613188D01*
X101566547Y-125613188D02*
X101528451Y-125765569D01*
X101528451Y-125765569D02*
X101490356Y-125841759D01*
X101490356Y-125841759D02*
X101414166Y-125917950D01*
X101414166Y-125917950D02*
X101299880Y-125956045D01*
X101299880Y-125956045D02*
X101109404Y-125956045D01*
X102328451Y-125956045D02*
X101871308Y-125956045D01*
X102099880Y-125956045D02*
X102099880Y-125156045D01*
X102099880Y-125156045D02*
X102023689Y-125270330D01*
X102023689Y-125270330D02*
X101947499Y-125346521D01*
X101947499Y-125346521D02*
X101871308Y-125384616D01*
X102557023Y-125156045D02*
X103014166Y-125156045D01*
X102785594Y-125956045D02*
X102785594Y-125156045D01*
X103699880Y-125956045D02*
X103242737Y-125956045D01*
X103471309Y-125956045D02*
X103471309Y-125156045D01*
X103471309Y-125156045D02*
X103395118Y-125270330D01*
X103395118Y-125270330D02*
X103318928Y-125346521D01*
X103318928Y-125346521D02*
X103242737Y-125384616D01*
X104309404Y-125536997D02*
X104423690Y-125575092D01*
X104423690Y-125575092D02*
X104461785Y-125613188D01*
X104461785Y-125613188D02*
X104499881Y-125689378D01*
X104499881Y-125689378D02*
X104499881Y-125803664D01*
X104499881Y-125803664D02*
X104461785Y-125879854D01*
X104461785Y-125879854D02*
X104423690Y-125917950D01*
X104423690Y-125917950D02*
X104347500Y-125956045D01*
X104347500Y-125956045D02*
X104042738Y-125956045D01*
X104042738Y-125956045D02*
X104042738Y-125156045D01*
X104042738Y-125156045D02*
X104309404Y-125156045D01*
X104309404Y-125156045D02*
X104385595Y-125194140D01*
X104385595Y-125194140D02*
X104423690Y-125232235D01*
X104423690Y-125232235D02*
X104461785Y-125308426D01*
X104461785Y-125308426D02*
X104461785Y-125384616D01*
X104461785Y-125384616D02*
X104423690Y-125460807D01*
X104423690Y-125460807D02*
X104385595Y-125498902D01*
X104385595Y-125498902D02*
X104309404Y-125536997D01*
X104309404Y-125536997D02*
X104042738Y-125536997D01*
X105261785Y-125956045D02*
X104804642Y-125956045D01*
X105033214Y-125956045D02*
X105033214Y-125156045D01*
X105033214Y-125156045D02*
X104957023Y-125270330D01*
X104957023Y-125270330D02*
X104880833Y-125346521D01*
X104880833Y-125346521D02*
X104804642Y-125384616D01*
X105604643Y-125956045D02*
X105604643Y-125156045D01*
X105604643Y-125156045D02*
X105871309Y-125727473D01*
X105871309Y-125727473D02*
X106137976Y-125156045D01*
X106137976Y-125156045D02*
X106137976Y-125956045D01*
X106937976Y-125956045D02*
X106480833Y-125956045D01*
X106709405Y-125956045D02*
X106709405Y-125156045D01*
X106709405Y-125156045D02*
X106633214Y-125270330D01*
X106633214Y-125270330D02*
X106557024Y-125346521D01*
X106557024Y-125346521D02*
X106480833Y-125384616D01*
X107814167Y-126032235D02*
X107737977Y-125994140D01*
X107737977Y-125994140D02*
X107661786Y-125917950D01*
X107661786Y-125917950D02*
X107547500Y-125803664D01*
X107547500Y-125803664D02*
X107471310Y-125765569D01*
X107471310Y-125765569D02*
X107395119Y-125765569D01*
X107433215Y-125956045D02*
X107357024Y-125917950D01*
X107357024Y-125917950D02*
X107280834Y-125841759D01*
X107280834Y-125841759D02*
X107242738Y-125689378D01*
X107242738Y-125689378D02*
X107242738Y-125422711D01*
X107242738Y-125422711D02*
X107280834Y-125270330D01*
X107280834Y-125270330D02*
X107357024Y-125194140D01*
X107357024Y-125194140D02*
X107433215Y-125156045D01*
X107433215Y-125156045D02*
X107585596Y-125156045D01*
X107585596Y-125156045D02*
X107661786Y-125194140D01*
X107661786Y-125194140D02*
X107737977Y-125270330D01*
X107737977Y-125270330D02*
X107776072Y-125422711D01*
X107776072Y-125422711D02*
X107776072Y-125689378D01*
X107776072Y-125689378D02*
X107737977Y-125841759D01*
X107737977Y-125841759D02*
X107661786Y-125917950D01*
X107661786Y-125917950D02*
X107585596Y-125956045D01*
X107585596Y-125956045D02*
X107433215Y-125956045D01*
X108118929Y-125536997D02*
X108385595Y-125536997D01*
X108499881Y-125956045D02*
X108118929Y-125956045D01*
X108118929Y-125956045D02*
X108118929Y-125156045D01*
X108118929Y-125156045D02*
X108499881Y-125156045D01*
D12*
X75866666Y-138607419D02*
X75866666Y-139321704D01*
X75866666Y-139321704D02*
X75819047Y-139464561D01*
X75819047Y-139464561D02*
X75723809Y-139559800D01*
X75723809Y-139559800D02*
X75580952Y-139607419D01*
X75580952Y-139607419D02*
X75485714Y-139607419D01*
X76247619Y-138607419D02*
X76866666Y-138607419D01*
X76866666Y-138607419D02*
X76533333Y-138988371D01*
X76533333Y-138988371D02*
X76676190Y-138988371D01*
X76676190Y-138988371D02*
X76771428Y-139035990D01*
X76771428Y-139035990D02*
X76819047Y-139083609D01*
X76819047Y-139083609D02*
X76866666Y-139178847D01*
X76866666Y-139178847D02*
X76866666Y-139416942D01*
X76866666Y-139416942D02*
X76819047Y-139512180D01*
X76819047Y-139512180D02*
X76771428Y-139559800D01*
X76771428Y-139559800D02*
X76676190Y-139607419D01*
X76676190Y-139607419D02*
X76390476Y-139607419D01*
X76390476Y-139607419D02*
X76295238Y-139559800D01*
X76295238Y-139559800D02*
X76247619Y-139512180D01*
D11*
X116342319Y-108116666D02*
X115866128Y-108449999D01*
X116342319Y-108688094D02*
X115342319Y-108688094D01*
X115342319Y-108688094D02*
X115342319Y-108307142D01*
X115342319Y-108307142D02*
X115389938Y-108211904D01*
X115389938Y-108211904D02*
X115437557Y-108164285D01*
X115437557Y-108164285D02*
X115532795Y-108116666D01*
X115532795Y-108116666D02*
X115675652Y-108116666D01*
X115675652Y-108116666D02*
X115770890Y-108164285D01*
X115770890Y-108164285D02*
X115818509Y-108211904D01*
X115818509Y-108211904D02*
X115866128Y-108307142D01*
X115866128Y-108307142D02*
X115866128Y-108688094D01*
X115437557Y-107735713D02*
X115389938Y-107688094D01*
X115389938Y-107688094D02*
X115342319Y-107592856D01*
X115342319Y-107592856D02*
X115342319Y-107354761D01*
X115342319Y-107354761D02*
X115389938Y-107259523D01*
X115389938Y-107259523D02*
X115437557Y-107211904D01*
X115437557Y-107211904D02*
X115532795Y-107164285D01*
X115532795Y-107164285D02*
X115628033Y-107164285D01*
X115628033Y-107164285D02*
X115770890Y-107211904D01*
X115770890Y-107211904D02*
X116342319Y-107783332D01*
X116342319Y-107783332D02*
X116342319Y-107164285D01*
X130008333Y-124184580D02*
X129960714Y-124232200D01*
X129960714Y-124232200D02*
X129817857Y-124279819D01*
X129817857Y-124279819D02*
X129722619Y-124279819D01*
X129722619Y-124279819D02*
X129579762Y-124232200D01*
X129579762Y-124232200D02*
X129484524Y-124136961D01*
X129484524Y-124136961D02*
X129436905Y-124041723D01*
X129436905Y-124041723D02*
X129389286Y-123851247D01*
X129389286Y-123851247D02*
X129389286Y-123708390D01*
X129389286Y-123708390D02*
X129436905Y-123517914D01*
X129436905Y-123517914D02*
X129484524Y-123422676D01*
X129484524Y-123422676D02*
X129579762Y-123327438D01*
X129579762Y-123327438D02*
X129722619Y-123279819D01*
X129722619Y-123279819D02*
X129817857Y-123279819D01*
X129817857Y-123279819D02*
X129960714Y-123327438D01*
X129960714Y-123327438D02*
X130008333Y-123375057D01*
X130865476Y-123613152D02*
X130865476Y-124279819D01*
X130627381Y-123232200D02*
X130389286Y-123946485D01*
X130389286Y-123946485D02*
X131008333Y-123946485D01*
D10*
X125673809Y-66002338D02*
X125483333Y-65907100D01*
X125483333Y-65907100D02*
X125388095Y-65716623D01*
X125388095Y-65716623D02*
X125388095Y-64002338D01*
X126435714Y-64669004D02*
X126435714Y-66669004D01*
X126435714Y-64764242D02*
X126626190Y-64669004D01*
X126626190Y-64669004D02*
X127007143Y-64669004D01*
X127007143Y-64669004D02*
X127197619Y-64764242D01*
X127197619Y-64764242D02*
X127292857Y-64859480D01*
X127292857Y-64859480D02*
X127388095Y-65049957D01*
X127388095Y-65049957D02*
X127388095Y-65621385D01*
X127388095Y-65621385D02*
X127292857Y-65811861D01*
X127292857Y-65811861D02*
X127197619Y-65907100D01*
X127197619Y-65907100D02*
X127007143Y-66002338D01*
X127007143Y-66002338D02*
X126626190Y-66002338D01*
X126626190Y-66002338D02*
X126435714Y-65907100D01*
X128245238Y-65240433D02*
X129769048Y-65240433D01*
X130435714Y-64669004D02*
X131197618Y-64669004D01*
X130721428Y-66002338D02*
X130721428Y-64288052D01*
X130721428Y-64288052D02*
X130816666Y-64097576D01*
X130816666Y-64097576D02*
X131007142Y-64002338D01*
X131007142Y-64002338D02*
X131197618Y-64002338D01*
X131864285Y-66002338D02*
X131864285Y-64669004D01*
X131864285Y-64002338D02*
X131769047Y-64097576D01*
X131769047Y-64097576D02*
X131864285Y-64192814D01*
X131864285Y-64192814D02*
X131959523Y-64097576D01*
X131959523Y-64097576D02*
X131864285Y-64002338D01*
X131864285Y-64002338D02*
X131864285Y-64192814D01*
X133102380Y-66002338D02*
X132911904Y-65907100D01*
X132911904Y-65907100D02*
X132816666Y-65716623D01*
X132816666Y-65716623D02*
X132816666Y-64002338D01*
X133578571Y-64669004D02*
X134340475Y-64669004D01*
X133864285Y-64002338D02*
X133864285Y-65716623D01*
X133864285Y-65716623D02*
X133959523Y-65907100D01*
X133959523Y-65907100D02*
X134149999Y-66002338D01*
X134149999Y-66002338D02*
X134340475Y-66002338D01*
X135769047Y-65907100D02*
X135578571Y-66002338D01*
X135578571Y-66002338D02*
X135197618Y-66002338D01*
X135197618Y-66002338D02*
X135007142Y-65907100D01*
X135007142Y-65907100D02*
X134911904Y-65716623D01*
X134911904Y-65716623D02*
X134911904Y-64954719D01*
X134911904Y-64954719D02*
X135007142Y-64764242D01*
X135007142Y-64764242D02*
X135197618Y-64669004D01*
X135197618Y-64669004D02*
X135578571Y-64669004D01*
X135578571Y-64669004D02*
X135769047Y-64764242D01*
X135769047Y-64764242D02*
X135864285Y-64954719D01*
X135864285Y-64954719D02*
X135864285Y-65145195D01*
X135864285Y-65145195D02*
X134911904Y-65335671D01*
X136721428Y-66002338D02*
X136721428Y-64669004D01*
X136721428Y-65049957D02*
X136816666Y-64859480D01*
X136816666Y-64859480D02*
X136911904Y-64764242D01*
X136911904Y-64764242D02*
X137102380Y-64669004D01*
X137102380Y-64669004D02*
X137292857Y-64669004D01*
X139007142Y-66002338D02*
X137864285Y-66002338D01*
X138435713Y-66002338D02*
X138435713Y-64002338D01*
X138435713Y-64002338D02*
X138245237Y-64288052D01*
X138245237Y-64288052D02*
X138054761Y-64478528D01*
X138054761Y-64478528D02*
X137864285Y-64573766D01*
D11*
X86179819Y-108116666D02*
X85703628Y-108449999D01*
X86179819Y-108688094D02*
X85179819Y-108688094D01*
X85179819Y-108688094D02*
X85179819Y-108307142D01*
X85179819Y-108307142D02*
X85227438Y-108211904D01*
X85227438Y-108211904D02*
X85275057Y-108164285D01*
X85275057Y-108164285D02*
X85370295Y-108116666D01*
X85370295Y-108116666D02*
X85513152Y-108116666D01*
X85513152Y-108116666D02*
X85608390Y-108164285D01*
X85608390Y-108164285D02*
X85656009Y-108211904D01*
X85656009Y-108211904D02*
X85703628Y-108307142D01*
X85703628Y-108307142D02*
X85703628Y-108688094D01*
X85179819Y-107259523D02*
X85179819Y-107449999D01*
X85179819Y-107449999D02*
X85227438Y-107545237D01*
X85227438Y-107545237D02*
X85275057Y-107592856D01*
X85275057Y-107592856D02*
X85417914Y-107688094D01*
X85417914Y-107688094D02*
X85608390Y-107735713D01*
X85608390Y-107735713D02*
X85989342Y-107735713D01*
X85989342Y-107735713D02*
X86084580Y-107688094D01*
X86084580Y-107688094D02*
X86132200Y-107640475D01*
X86132200Y-107640475D02*
X86179819Y-107545237D01*
X86179819Y-107545237D02*
X86179819Y-107354761D01*
X86179819Y-107354761D02*
X86132200Y-107259523D01*
X86132200Y-107259523D02*
X86084580Y-107211904D01*
X86084580Y-107211904D02*
X85989342Y-107164285D01*
X85989342Y-107164285D02*
X85751247Y-107164285D01*
X85751247Y-107164285D02*
X85656009Y-107211904D01*
X85656009Y-107211904D02*
X85608390Y-107259523D01*
X85608390Y-107259523D02*
X85560771Y-107354761D01*
X85560771Y-107354761D02*
X85560771Y-107545237D01*
X85560771Y-107545237D02*
X85608390Y-107640475D01*
X85608390Y-107640475D02*
X85656009Y-107688094D01*
X85656009Y-107688094D02*
X85751247Y-107735713D01*
X103814583Y-96498569D02*
X103481250Y-96022378D01*
X103243155Y-96498569D02*
X103243155Y-95498569D01*
X103243155Y-95498569D02*
X103624107Y-95498569D01*
X103624107Y-95498569D02*
X103719345Y-95546188D01*
X103719345Y-95546188D02*
X103766964Y-95593807D01*
X103766964Y-95593807D02*
X103814583Y-95689045D01*
X103814583Y-95689045D02*
X103814583Y-95831902D01*
X103814583Y-95831902D02*
X103766964Y-95927140D01*
X103766964Y-95927140D02*
X103719345Y-95974759D01*
X103719345Y-95974759D02*
X103624107Y-96022378D01*
X103624107Y-96022378D02*
X103243155Y-96022378D01*
X104719345Y-95498569D02*
X104243155Y-95498569D01*
X104243155Y-95498569D02*
X104195536Y-95974759D01*
X104195536Y-95974759D02*
X104243155Y-95927140D01*
X104243155Y-95927140D02*
X104338393Y-95879521D01*
X104338393Y-95879521D02*
X104576488Y-95879521D01*
X104576488Y-95879521D02*
X104671726Y-95927140D01*
X104671726Y-95927140D02*
X104719345Y-95974759D01*
X104719345Y-95974759D02*
X104766964Y-96069997D01*
X104766964Y-96069997D02*
X104766964Y-96308092D01*
X104766964Y-96308092D02*
X104719345Y-96403330D01*
X104719345Y-96403330D02*
X104671726Y-96450950D01*
X104671726Y-96450950D02*
X104576488Y-96498569D01*
X104576488Y-96498569D02*
X104338393Y-96498569D01*
X104338393Y-96498569D02*
X104243155Y-96450950D01*
X104243155Y-96450950D02*
X104195536Y-96403330D01*
X118102083Y-94815830D02*
X118054464Y-94863450D01*
X118054464Y-94863450D02*
X117911607Y-94911069D01*
X117911607Y-94911069D02*
X117816369Y-94911069D01*
X117816369Y-94911069D02*
X117673512Y-94863450D01*
X117673512Y-94863450D02*
X117578274Y-94768211D01*
X117578274Y-94768211D02*
X117530655Y-94672973D01*
X117530655Y-94672973D02*
X117483036Y-94482497D01*
X117483036Y-94482497D02*
X117483036Y-94339640D01*
X117483036Y-94339640D02*
X117530655Y-94149164D01*
X117530655Y-94149164D02*
X117578274Y-94053926D01*
X117578274Y-94053926D02*
X117673512Y-93958688D01*
X117673512Y-93958688D02*
X117816369Y-93911069D01*
X117816369Y-93911069D02*
X117911607Y-93911069D01*
X117911607Y-93911069D02*
X118054464Y-93958688D01*
X118054464Y-93958688D02*
X118102083Y-94006307D01*
X118483036Y-94006307D02*
X118530655Y-93958688D01*
X118530655Y-93958688D02*
X118625893Y-93911069D01*
X118625893Y-93911069D02*
X118863988Y-93911069D01*
X118863988Y-93911069D02*
X118959226Y-93958688D01*
X118959226Y-93958688D02*
X119006845Y-94006307D01*
X119006845Y-94006307D02*
X119054464Y-94101545D01*
X119054464Y-94101545D02*
X119054464Y-94196783D01*
X119054464Y-94196783D02*
X119006845Y-94339640D01*
X119006845Y-94339640D02*
X118435417Y-94911069D01*
X118435417Y-94911069D02*
X119054464Y-94911069D01*
X103219345Y-107246069D02*
X103219345Y-108055592D01*
X103219345Y-108055592D02*
X103266964Y-108150830D01*
X103266964Y-108150830D02*
X103314583Y-108198450D01*
X103314583Y-108198450D02*
X103409821Y-108246069D01*
X103409821Y-108246069D02*
X103600297Y-108246069D01*
X103600297Y-108246069D02*
X103695535Y-108198450D01*
X103695535Y-108198450D02*
X103743154Y-108150830D01*
X103743154Y-108150830D02*
X103790773Y-108055592D01*
X103790773Y-108055592D02*
X103790773Y-107246069D01*
X104790773Y-108246069D02*
X104219345Y-108246069D01*
X104505059Y-108246069D02*
X104505059Y-107246069D01*
X104505059Y-107246069D02*
X104409821Y-107388926D01*
X104409821Y-107388926D02*
X104314583Y-107484164D01*
X104314583Y-107484164D02*
X104219345Y-107531783D01*
D12*
X131316666Y-138657419D02*
X131316666Y-139371704D01*
X131316666Y-139371704D02*
X131269047Y-139514561D01*
X131269047Y-139514561D02*
X131173809Y-139609800D01*
X131173809Y-139609800D02*
X131030952Y-139657419D01*
X131030952Y-139657419D02*
X130935714Y-139657419D01*
X131745238Y-138752657D02*
X131792857Y-138705038D01*
X131792857Y-138705038D02*
X131888095Y-138657419D01*
X131888095Y-138657419D02*
X132126190Y-138657419D01*
X132126190Y-138657419D02*
X132221428Y-138705038D01*
X132221428Y-138705038D02*
X132269047Y-138752657D01*
X132269047Y-138752657D02*
X132316666Y-138847895D01*
X132316666Y-138847895D02*
X132316666Y-138943133D01*
X132316666Y-138943133D02*
X132269047Y-139085990D01*
X132269047Y-139085990D02*
X131697619Y-139657419D01*
X131697619Y-139657419D02*
X132316666Y-139657419D01*
D11*
X92434580Y-122404166D02*
X92482200Y-122451785D01*
X92482200Y-122451785D02*
X92529819Y-122594642D01*
X92529819Y-122594642D02*
X92529819Y-122689880D01*
X92529819Y-122689880D02*
X92482200Y-122832737D01*
X92482200Y-122832737D02*
X92386961Y-122927975D01*
X92386961Y-122927975D02*
X92291723Y-122975594D01*
X92291723Y-122975594D02*
X92101247Y-123023213D01*
X92101247Y-123023213D02*
X91958390Y-123023213D01*
X91958390Y-123023213D02*
X91767914Y-122975594D01*
X91767914Y-122975594D02*
X91672676Y-122927975D01*
X91672676Y-122927975D02*
X91577438Y-122832737D01*
X91577438Y-122832737D02*
X91529819Y-122689880D01*
X91529819Y-122689880D02*
X91529819Y-122594642D01*
X91529819Y-122594642D02*
X91577438Y-122451785D01*
X91577438Y-122451785D02*
X91625057Y-122404166D01*
X92529819Y-121451785D02*
X92529819Y-122023213D01*
X92529819Y-121737499D02*
X91529819Y-121737499D01*
X91529819Y-121737499D02*
X91672676Y-121832737D01*
X91672676Y-121832737D02*
X91767914Y-121927975D01*
X91767914Y-121927975D02*
X91815533Y-122023213D01*
X100068155Y-63161069D02*
X100068155Y-62161069D01*
X100068155Y-62161069D02*
X100306250Y-62161069D01*
X100306250Y-62161069D02*
X100449107Y-62208688D01*
X100449107Y-62208688D02*
X100544345Y-62303926D01*
X100544345Y-62303926D02*
X100591964Y-62399164D01*
X100591964Y-62399164D02*
X100639583Y-62589640D01*
X100639583Y-62589640D02*
X100639583Y-62732497D01*
X100639583Y-62732497D02*
X100591964Y-62922973D01*
X100591964Y-62922973D02*
X100544345Y-63018211D01*
X100544345Y-63018211D02*
X100449107Y-63113450D01*
X100449107Y-63113450D02*
X100306250Y-63161069D01*
X100306250Y-63161069D02*
X100068155Y-63161069D01*
X100972917Y-62161069D02*
X101591964Y-62161069D01*
X101591964Y-62161069D02*
X101258631Y-62542021D01*
X101258631Y-62542021D02*
X101401488Y-62542021D01*
X101401488Y-62542021D02*
X101496726Y-62589640D01*
X101496726Y-62589640D02*
X101544345Y-62637259D01*
X101544345Y-62637259D02*
X101591964Y-62732497D01*
X101591964Y-62732497D02*
X101591964Y-62970592D01*
X101591964Y-62970592D02*
X101544345Y-63065830D01*
X101544345Y-63065830D02*
X101496726Y-63113450D01*
X101496726Y-63113450D02*
X101401488Y-63161069D01*
X101401488Y-63161069D02*
X101115774Y-63161069D01*
X101115774Y-63161069D02*
X101020536Y-63113450D01*
X101020536Y-63113450D02*
X100972917Y-63065830D01*
X96099345Y-61061069D02*
X96099345Y-60061069D01*
X96670773Y-61061069D02*
X96242202Y-60489640D01*
X96670773Y-60061069D02*
X96099345Y-60632497D01*
X132915830Y-108116666D02*
X132963450Y-108164285D01*
X132963450Y-108164285D02*
X133011069Y-108307142D01*
X133011069Y-108307142D02*
X133011069Y-108402380D01*
X133011069Y-108402380D02*
X132963450Y-108545237D01*
X132963450Y-108545237D02*
X132868211Y-108640475D01*
X132868211Y-108640475D02*
X132772973Y-108688094D01*
X132772973Y-108688094D02*
X132582497Y-108735713D01*
X132582497Y-108735713D02*
X132439640Y-108735713D01*
X132439640Y-108735713D02*
X132249164Y-108688094D01*
X132249164Y-108688094D02*
X132153926Y-108640475D01*
X132153926Y-108640475D02*
X132058688Y-108545237D01*
X132058688Y-108545237D02*
X132011069Y-108402380D01*
X132011069Y-108402380D02*
X132011069Y-108307142D01*
X132011069Y-108307142D02*
X132058688Y-108164285D01*
X132058688Y-108164285D02*
X132106307Y-108116666D01*
X132011069Y-107783332D02*
X132011069Y-107164285D01*
X132011069Y-107164285D02*
X132392021Y-107497618D01*
X132392021Y-107497618D02*
X132392021Y-107354761D01*
X132392021Y-107354761D02*
X132439640Y-107259523D01*
X132439640Y-107259523D02*
X132487259Y-107211904D01*
X132487259Y-107211904D02*
X132582497Y-107164285D01*
X132582497Y-107164285D02*
X132820592Y-107164285D01*
X132820592Y-107164285D02*
X132915830Y-107211904D01*
X132915830Y-107211904D02*
X132963450Y-107259523D01*
X132963450Y-107259523D02*
X133011069Y-107354761D01*
X133011069Y-107354761D02*
X133011069Y-107640475D01*
X133011069Y-107640475D02*
X132963450Y-107735713D01*
X132963450Y-107735713D02*
X132915830Y-107783332D01*
X87939583Y-51953330D02*
X87891964Y-52000950D01*
X87891964Y-52000950D02*
X87749107Y-52048569D01*
X87749107Y-52048569D02*
X87653869Y-52048569D01*
X87653869Y-52048569D02*
X87511012Y-52000950D01*
X87511012Y-52000950D02*
X87415774Y-51905711D01*
X87415774Y-51905711D02*
X87368155Y-51810473D01*
X87368155Y-51810473D02*
X87320536Y-51619997D01*
X87320536Y-51619997D02*
X87320536Y-51477140D01*
X87320536Y-51477140D02*
X87368155Y-51286664D01*
X87368155Y-51286664D02*
X87415774Y-51191426D01*
X87415774Y-51191426D02*
X87511012Y-51096188D01*
X87511012Y-51096188D02*
X87653869Y-51048569D01*
X87653869Y-51048569D02*
X87749107Y-51048569D01*
X87749107Y-51048569D02*
X87891964Y-51096188D01*
X87891964Y-51096188D02*
X87939583Y-51143807D01*
X88511012Y-51477140D02*
X88415774Y-51429521D01*
X88415774Y-51429521D02*
X88368155Y-51381902D01*
X88368155Y-51381902D02*
X88320536Y-51286664D01*
X88320536Y-51286664D02*
X88320536Y-51239045D01*
X88320536Y-51239045D02*
X88368155Y-51143807D01*
X88368155Y-51143807D02*
X88415774Y-51096188D01*
X88415774Y-51096188D02*
X88511012Y-51048569D01*
X88511012Y-51048569D02*
X88701488Y-51048569D01*
X88701488Y-51048569D02*
X88796726Y-51096188D01*
X88796726Y-51096188D02*
X88844345Y-51143807D01*
X88844345Y-51143807D02*
X88891964Y-51239045D01*
X88891964Y-51239045D02*
X88891964Y-51286664D01*
X88891964Y-51286664D02*
X88844345Y-51381902D01*
X88844345Y-51381902D02*
X88796726Y-51429521D01*
X88796726Y-51429521D02*
X88701488Y-51477140D01*
X88701488Y-51477140D02*
X88511012Y-51477140D01*
X88511012Y-51477140D02*
X88415774Y-51524759D01*
X88415774Y-51524759D02*
X88368155Y-51572378D01*
X88368155Y-51572378D02*
X88320536Y-51667616D01*
X88320536Y-51667616D02*
X88320536Y-51858092D01*
X88320536Y-51858092D02*
X88368155Y-51953330D01*
X88368155Y-51953330D02*
X88415774Y-52000950D01*
X88415774Y-52000950D02*
X88511012Y-52048569D01*
X88511012Y-52048569D02*
X88701488Y-52048569D01*
X88701488Y-52048569D02*
X88796726Y-52000950D01*
X88796726Y-52000950D02*
X88844345Y-51953330D01*
X88844345Y-51953330D02*
X88891964Y-51858092D01*
X88891964Y-51858092D02*
X88891964Y-51667616D01*
X88891964Y-51667616D02*
X88844345Y-51572378D01*
X88844345Y-51572378D02*
X88796726Y-51524759D01*
X88796726Y-51524759D02*
X88701488Y-51477140D01*
X117689405Y-122317319D02*
X117689405Y-121317319D01*
X117689405Y-121317319D02*
X117927500Y-121317319D01*
X117927500Y-121317319D02*
X118070357Y-121364938D01*
X118070357Y-121364938D02*
X118165595Y-121460176D01*
X118165595Y-121460176D02*
X118213214Y-121555414D01*
X118213214Y-121555414D02*
X118260833Y-121745890D01*
X118260833Y-121745890D02*
X118260833Y-121888747D01*
X118260833Y-121888747D02*
X118213214Y-122079223D01*
X118213214Y-122079223D02*
X118165595Y-122174461D01*
X118165595Y-122174461D02*
X118070357Y-122269700D01*
X118070357Y-122269700D02*
X117927500Y-122317319D01*
X117927500Y-122317319D02*
X117689405Y-122317319D01*
X118641786Y-121412557D02*
X118689405Y-121364938D01*
X118689405Y-121364938D02*
X118784643Y-121317319D01*
X118784643Y-121317319D02*
X119022738Y-121317319D01*
X119022738Y-121317319D02*
X119117976Y-121364938D01*
X119117976Y-121364938D02*
X119165595Y-121412557D01*
X119165595Y-121412557D02*
X119213214Y-121507795D01*
X119213214Y-121507795D02*
X119213214Y-121603033D01*
X119213214Y-121603033D02*
X119165595Y-121745890D01*
X119165595Y-121745890D02*
X118594167Y-122317319D01*
X118594167Y-122317319D02*
X119213214Y-122317319D01*
X121975595Y-124117319D02*
X121975595Y-123117319D01*
X122547023Y-124117319D02*
X122118452Y-123545890D01*
X122547023Y-123117319D02*
X121975595Y-123688747D01*
X79829819Y-108116666D02*
X79353628Y-108449999D01*
X79829819Y-108688094D02*
X78829819Y-108688094D01*
X78829819Y-108688094D02*
X78829819Y-108307142D01*
X78829819Y-108307142D02*
X78877438Y-108211904D01*
X78877438Y-108211904D02*
X78925057Y-108164285D01*
X78925057Y-108164285D02*
X79020295Y-108116666D01*
X79020295Y-108116666D02*
X79163152Y-108116666D01*
X79163152Y-108116666D02*
X79258390Y-108164285D01*
X79258390Y-108164285D02*
X79306009Y-108211904D01*
X79306009Y-108211904D02*
X79353628Y-108307142D01*
X79353628Y-108307142D02*
X79353628Y-108688094D01*
X78829819Y-107783332D02*
X78829819Y-107116666D01*
X78829819Y-107116666D02*
X79829819Y-107545237D01*
X79208333Y-51953330D02*
X79160714Y-52000950D01*
X79160714Y-52000950D02*
X79017857Y-52048569D01*
X79017857Y-52048569D02*
X78922619Y-52048569D01*
X78922619Y-52048569D02*
X78779762Y-52000950D01*
X78779762Y-52000950D02*
X78684524Y-51905711D01*
X78684524Y-51905711D02*
X78636905Y-51810473D01*
X78636905Y-51810473D02*
X78589286Y-51619997D01*
X78589286Y-51619997D02*
X78589286Y-51477140D01*
X78589286Y-51477140D02*
X78636905Y-51286664D01*
X78636905Y-51286664D02*
X78684524Y-51191426D01*
X78684524Y-51191426D02*
X78779762Y-51096188D01*
X78779762Y-51096188D02*
X78922619Y-51048569D01*
X78922619Y-51048569D02*
X79017857Y-51048569D01*
X79017857Y-51048569D02*
X79160714Y-51096188D01*
X79160714Y-51096188D02*
X79208333Y-51143807D01*
X79541667Y-51048569D02*
X80208333Y-51048569D01*
X80208333Y-51048569D02*
X79779762Y-52048569D01*
X117689405Y-125867319D02*
X117689405Y-124867319D01*
X117689405Y-124867319D02*
X117927500Y-124867319D01*
X117927500Y-124867319D02*
X118070357Y-124914938D01*
X118070357Y-124914938D02*
X118165595Y-125010176D01*
X118165595Y-125010176D02*
X118213214Y-125105414D01*
X118213214Y-125105414D02*
X118260833Y-125295890D01*
X118260833Y-125295890D02*
X118260833Y-125438747D01*
X118260833Y-125438747D02*
X118213214Y-125629223D01*
X118213214Y-125629223D02*
X118165595Y-125724461D01*
X118165595Y-125724461D02*
X118070357Y-125819700D01*
X118070357Y-125819700D02*
X117927500Y-125867319D01*
X117927500Y-125867319D02*
X117689405Y-125867319D01*
X119213214Y-125867319D02*
X118641786Y-125867319D01*
X118927500Y-125867319D02*
X118927500Y-124867319D01*
X118927500Y-124867319D02*
X118832262Y-125010176D01*
X118832262Y-125010176D02*
X118737024Y-125105414D01*
X118737024Y-125105414D02*
X118641786Y-125153033D01*
X114355595Y-124067319D02*
X114355595Y-123067319D01*
X114927023Y-124067319D02*
X114498452Y-123495890D01*
X114927023Y-123067319D02*
X114355595Y-123638747D01*
X73479819Y-108116666D02*
X73003628Y-108449999D01*
X73479819Y-108688094D02*
X72479819Y-108688094D01*
X72479819Y-108688094D02*
X72479819Y-108307142D01*
X72479819Y-108307142D02*
X72527438Y-108211904D01*
X72527438Y-108211904D02*
X72575057Y-108164285D01*
X72575057Y-108164285D02*
X72670295Y-108116666D01*
X72670295Y-108116666D02*
X72813152Y-108116666D01*
X72813152Y-108116666D02*
X72908390Y-108164285D01*
X72908390Y-108164285D02*
X72956009Y-108211904D01*
X72956009Y-108211904D02*
X73003628Y-108307142D01*
X73003628Y-108307142D02*
X73003628Y-108688094D01*
X72908390Y-107545237D02*
X72860771Y-107640475D01*
X72860771Y-107640475D02*
X72813152Y-107688094D01*
X72813152Y-107688094D02*
X72717914Y-107735713D01*
X72717914Y-107735713D02*
X72670295Y-107735713D01*
X72670295Y-107735713D02*
X72575057Y-107688094D01*
X72575057Y-107688094D02*
X72527438Y-107640475D01*
X72527438Y-107640475D02*
X72479819Y-107545237D01*
X72479819Y-107545237D02*
X72479819Y-107354761D01*
X72479819Y-107354761D02*
X72527438Y-107259523D01*
X72527438Y-107259523D02*
X72575057Y-107211904D01*
X72575057Y-107211904D02*
X72670295Y-107164285D01*
X72670295Y-107164285D02*
X72717914Y-107164285D01*
X72717914Y-107164285D02*
X72813152Y-107211904D01*
X72813152Y-107211904D02*
X72860771Y-107259523D01*
X72860771Y-107259523D02*
X72908390Y-107354761D01*
X72908390Y-107354761D02*
X72908390Y-107545237D01*
X72908390Y-107545237D02*
X72956009Y-107640475D01*
X72956009Y-107640475D02*
X73003628Y-107688094D01*
X73003628Y-107688094D02*
X73098866Y-107735713D01*
X73098866Y-107735713D02*
X73289342Y-107735713D01*
X73289342Y-107735713D02*
X73384580Y-107688094D01*
X73384580Y-107688094D02*
X73432200Y-107640475D01*
X73432200Y-107640475D02*
X73479819Y-107545237D01*
X73479819Y-107545237D02*
X73479819Y-107354761D01*
X73479819Y-107354761D02*
X73432200Y-107259523D01*
X73432200Y-107259523D02*
X73384580Y-107211904D01*
X73384580Y-107211904D02*
X73289342Y-107164285D01*
X73289342Y-107164285D02*
X73098866Y-107164285D01*
X73098866Y-107164285D02*
X73003628Y-107211904D01*
X73003628Y-107211904D02*
X72956009Y-107259523D01*
X72956009Y-107259523D02*
X72908390Y-107354761D01*
D10*
X98028868Y-64669004D02*
X98505058Y-66002338D01*
X98505058Y-66002338D02*
X98981249Y-64669004D01*
X100028868Y-66002338D02*
X99838392Y-65907100D01*
X99838392Y-65907100D02*
X99743154Y-65811861D01*
X99743154Y-65811861D02*
X99647916Y-65621385D01*
X99647916Y-65621385D02*
X99647916Y-65049957D01*
X99647916Y-65049957D02*
X99743154Y-64859480D01*
X99743154Y-64859480D02*
X99838392Y-64764242D01*
X99838392Y-64764242D02*
X100028868Y-64669004D01*
X100028868Y-64669004D02*
X100314583Y-64669004D01*
X100314583Y-64669004D02*
X100505059Y-64764242D01*
X100505059Y-64764242D02*
X100600297Y-64859480D01*
X100600297Y-64859480D02*
X100695535Y-65049957D01*
X100695535Y-65049957D02*
X100695535Y-65621385D01*
X100695535Y-65621385D02*
X100600297Y-65811861D01*
X100600297Y-65811861D02*
X100505059Y-65907100D01*
X100505059Y-65907100D02*
X100314583Y-66002338D01*
X100314583Y-66002338D02*
X100028868Y-66002338D01*
X101838392Y-66002338D02*
X101647916Y-65907100D01*
X101647916Y-65907100D02*
X101552678Y-65716623D01*
X101552678Y-65716623D02*
X101552678Y-64002338D01*
X103457440Y-64669004D02*
X103457440Y-66002338D01*
X102600297Y-64669004D02*
X102600297Y-65716623D01*
X102600297Y-65716623D02*
X102695535Y-65907100D01*
X102695535Y-65907100D02*
X102886011Y-66002338D01*
X102886011Y-66002338D02*
X103171726Y-66002338D01*
X103171726Y-66002338D02*
X103362202Y-65907100D01*
X103362202Y-65907100D02*
X103457440Y-65811861D01*
X104409821Y-66002338D02*
X104409821Y-64669004D01*
X104409821Y-64859480D02*
X104505059Y-64764242D01*
X104505059Y-64764242D02*
X104695535Y-64669004D01*
X104695535Y-64669004D02*
X104981250Y-64669004D01*
X104981250Y-64669004D02*
X105171726Y-64764242D01*
X105171726Y-64764242D02*
X105266964Y-64954719D01*
X105266964Y-64954719D02*
X105266964Y-66002338D01*
X105266964Y-64954719D02*
X105362202Y-64764242D01*
X105362202Y-64764242D02*
X105552678Y-64669004D01*
X105552678Y-64669004D02*
X105838392Y-64669004D01*
X105838392Y-64669004D02*
X106028869Y-64764242D01*
X106028869Y-64764242D02*
X106124107Y-64954719D01*
X106124107Y-64954719D02*
X106124107Y-66002338D01*
X107838393Y-65907100D02*
X107647917Y-66002338D01*
X107647917Y-66002338D02*
X107266964Y-66002338D01*
X107266964Y-66002338D02*
X107076488Y-65907100D01*
X107076488Y-65907100D02*
X106981250Y-65716623D01*
X106981250Y-65716623D02*
X106981250Y-64954719D01*
X106981250Y-64954719D02*
X107076488Y-64764242D01*
X107076488Y-64764242D02*
X107266964Y-64669004D01*
X107266964Y-64669004D02*
X107647917Y-64669004D01*
X107647917Y-64669004D02*
X107838393Y-64764242D01*
X107838393Y-64764242D02*
X107933631Y-64954719D01*
X107933631Y-64954719D02*
X107933631Y-65145195D01*
X107933631Y-65145195D02*
X106981250Y-65335671D01*
X109838393Y-66002338D02*
X108695536Y-66002338D01*
X109266964Y-66002338D02*
X109266964Y-64002338D01*
X109266964Y-64002338D02*
X109076488Y-64288052D01*
X109076488Y-64288052D02*
X108886012Y-64478528D01*
X108886012Y-64478528D02*
X108695536Y-64573766D01*
D11*
X103647916Y-47079819D02*
X103647916Y-47794104D01*
X103647916Y-47794104D02*
X103600297Y-47936961D01*
X103600297Y-47936961D02*
X103505059Y-48032200D01*
X103505059Y-48032200D02*
X103362202Y-48079819D01*
X103362202Y-48079819D02*
X103266964Y-48079819D01*
X104647916Y-48079819D02*
X104076488Y-48079819D01*
X104362202Y-48079819D02*
X104362202Y-47079819D01*
X104362202Y-47079819D02*
X104266964Y-47222676D01*
X104266964Y-47222676D02*
X104171726Y-47317914D01*
X104171726Y-47317914D02*
X104076488Y-47365533D01*
X122392319Y-108116666D02*
X121916128Y-108449999D01*
X122392319Y-108688094D02*
X121392319Y-108688094D01*
X121392319Y-108688094D02*
X121392319Y-108307142D01*
X121392319Y-108307142D02*
X121439938Y-108211904D01*
X121439938Y-108211904D02*
X121487557Y-108164285D01*
X121487557Y-108164285D02*
X121582795Y-108116666D01*
X121582795Y-108116666D02*
X121725652Y-108116666D01*
X121725652Y-108116666D02*
X121820890Y-108164285D01*
X121820890Y-108164285D02*
X121868509Y-108211904D01*
X121868509Y-108211904D02*
X121916128Y-108307142D01*
X121916128Y-108307142D02*
X121916128Y-108688094D01*
X121725652Y-107259523D02*
X122392319Y-107259523D01*
X121344700Y-107497618D02*
X122058985Y-107735713D01*
X122058985Y-107735713D02*
X122058985Y-107116666D01*
X138472080Y-108116666D02*
X138519700Y-108164285D01*
X138519700Y-108164285D02*
X138567319Y-108307142D01*
X138567319Y-108307142D02*
X138567319Y-108402380D01*
X138567319Y-108402380D02*
X138519700Y-108545237D01*
X138519700Y-108545237D02*
X138424461Y-108640475D01*
X138424461Y-108640475D02*
X138329223Y-108688094D01*
X138329223Y-108688094D02*
X138138747Y-108735713D01*
X138138747Y-108735713D02*
X137995890Y-108735713D01*
X137995890Y-108735713D02*
X137805414Y-108688094D01*
X137805414Y-108688094D02*
X137710176Y-108640475D01*
X137710176Y-108640475D02*
X137614938Y-108545237D01*
X137614938Y-108545237D02*
X137567319Y-108402380D01*
X137567319Y-108402380D02*
X137567319Y-108307142D01*
X137567319Y-108307142D02*
X137614938Y-108164285D01*
X137614938Y-108164285D02*
X137662557Y-108116666D01*
X137567319Y-107259523D02*
X137567319Y-107449999D01*
X137567319Y-107449999D02*
X137614938Y-107545237D01*
X137614938Y-107545237D02*
X137662557Y-107592856D01*
X137662557Y-107592856D02*
X137805414Y-107688094D01*
X137805414Y-107688094D02*
X137995890Y-107735713D01*
X137995890Y-107735713D02*
X138376842Y-107735713D01*
X138376842Y-107735713D02*
X138472080Y-107688094D01*
X138472080Y-107688094D02*
X138519700Y-107640475D01*
X138519700Y-107640475D02*
X138567319Y-107545237D01*
X138567319Y-107545237D02*
X138567319Y-107354761D01*
X138567319Y-107354761D02*
X138519700Y-107259523D01*
X138519700Y-107259523D02*
X138472080Y-107211904D01*
X138472080Y-107211904D02*
X138376842Y-107164285D01*
X138376842Y-107164285D02*
X138138747Y-107164285D01*
X138138747Y-107164285D02*
X138043509Y-107211904D01*
X138043509Y-107211904D02*
X137995890Y-107259523D01*
X137995890Y-107259523D02*
X137948271Y-107354761D01*
X137948271Y-107354761D02*
X137948271Y-107545237D01*
X137948271Y-107545237D02*
X137995890Y-107640475D01*
X137995890Y-107640475D02*
X138043509Y-107688094D01*
X138043509Y-107688094D02*
X138138747Y-107735713D01*
D13*
X88200000Y-79375000D02*
G75*
G02*
X64200000Y-79375000I-12000000J0D01*
G01*
X64200000Y-79375000D02*
G75*
G02*
X88200000Y-79375000I12000000J0D01*
G01*
X82700000Y-74375000D02*
X82700000Y-88375000D01*
X69700000Y-88375000D02*
X82700000Y-88375000D01*
X69700000Y-88375000D02*
X69700000Y-74375000D01*
X69700000Y-74375000D02*
X82700000Y-74375000D01*
D14*
X87595000Y-125957500D02*
X83855000Y-125957500D01*
X87595000Y-118517500D02*
X87595000Y-125957500D01*
X87595000Y-118517500D02*
X83855000Y-118517500D01*
X83855000Y-118517500D02*
X83855000Y-125957500D01*
X94445000Y-114020000D02*
X94445000Y-101880000D01*
X94445000Y-101880000D02*
X89705000Y-101880000D01*
X92075000Y-114130000D02*
X92075000Y-114020000D01*
X92075000Y-101770000D02*
X92075000Y-101880000D01*
X89705000Y-114020000D02*
X94445000Y-114020000D01*
X89705000Y-101880000D02*
X89705000Y-114020000D01*
X128370000Y-111220000D02*
X128370000Y-104680000D01*
X128370000Y-104680000D02*
X125630000Y-104680000D01*
X127000000Y-111990000D02*
X127000000Y-111220000D01*
X127000000Y-103910000D02*
X127000000Y-104680000D01*
X125630000Y-111220000D02*
X128370000Y-111220000D01*
X125630000Y-104680000D02*
X125630000Y-111220000D01*
D13*
X109662500Y-129443750D02*
X98232500Y-129443750D01*
X109662500Y-116743750D02*
X109662500Y-129443750D01*
X98232500Y-116743750D02*
X109662500Y-116743750D01*
X98232500Y-116743750D02*
X98232500Y-129443750D01*
X84200000Y-147650000D02*
X68200000Y-147650000D01*
X84200000Y-131650000D02*
X84200000Y-147650000D01*
X84200000Y-131650000D02*
X68200000Y-131650000D01*
X68200000Y-131650000D02*
X68200000Y-147650000D01*
D14*
X118257500Y-114020000D02*
X118257500Y-101880000D01*
X118257500Y-101880000D02*
X113517500Y-101880000D01*
X115887500Y-114130000D02*
X115887500Y-114020000D01*
X115887500Y-101770000D02*
X115887500Y-101880000D01*
X113517500Y-114020000D02*
X118257500Y-114020000D01*
X113517500Y-101880000D02*
X113517500Y-114020000D01*
X133895000Y-126695000D02*
X133895000Y-120955000D01*
X133895000Y-126695000D02*
X126455000Y-126695000D01*
X133895000Y-120955000D02*
X126455000Y-120955000D01*
X126455000Y-126695000D02*
X126455000Y-120955000D01*
D13*
X143650000Y-79375000D02*
G75*
G02*
X119650000Y-79375000I-12000000J0D01*
G01*
X119650000Y-79375000D02*
G75*
G02*
X143650000Y-79375000I12000000J0D01*
G01*
X138150000Y-74375000D02*
X138150000Y-88375000D01*
X125150000Y-88375000D02*
X138150000Y-88375000D01*
X125150000Y-88375000D02*
X125150000Y-74375000D01*
X125150000Y-74375000D02*
X138150000Y-74375000D01*
D14*
X88095000Y-114020000D02*
X88095000Y-101880000D01*
X88095000Y-101880000D02*
X83355000Y-101880000D01*
X85725000Y-114130000D02*
X85725000Y-114020000D01*
X85725000Y-101770000D02*
X85725000Y-101880000D01*
X83355000Y-114020000D02*
X88095000Y-114020000D01*
X83355000Y-101880000D02*
X83355000Y-114020000D01*
X108021250Y-96043750D02*
X107251250Y-96043750D01*
X107251250Y-97413750D02*
X107251250Y-94673750D01*
X107251250Y-94673750D02*
X100711250Y-94673750D01*
X100711250Y-97413750D02*
X107251250Y-97413750D01*
X100711250Y-94673750D02*
X100711250Y-97413750D01*
X99941250Y-96043750D02*
X100711250Y-96043750D01*
X121988750Y-93086250D02*
X121988750Y-95826250D01*
X114548750Y-95826250D02*
X121988750Y-95826250D01*
X114548750Y-93086250D02*
X121988750Y-93086250D01*
X114548750Y-93086250D02*
X114548750Y-95826250D01*
D15*
X104286050Y-102711250D02*
G75*
G02*
X103676450Y-102711250I-304800J0D01*
G01*
X107283250Y-112871250D02*
X107283250Y-112484064D01*
X107283250Y-110718436D02*
X107283250Y-109944064D01*
X107283250Y-108178436D02*
X107283250Y-107404064D01*
X107283250Y-105638436D02*
X107283250Y-104864064D01*
X107283250Y-103098436D02*
X107283250Y-102711250D01*
X107283250Y-102711250D02*
X100679250Y-102711250D01*
X100679250Y-112871250D02*
X107283250Y-112871250D01*
X100679250Y-112484064D02*
X100679250Y-112871250D01*
X100679250Y-109944064D02*
X100679250Y-110718436D01*
X100679250Y-107404064D02*
X100679250Y-108178436D01*
X100679250Y-104999790D02*
X100679250Y-105638436D01*
D13*
X139650000Y-147700000D02*
X123650000Y-147700000D01*
X139650000Y-131700000D02*
X139650000Y-147700000D01*
X139650000Y-131700000D02*
X123650000Y-131700000D01*
X123650000Y-131700000D02*
X123650000Y-147700000D01*
D14*
X93445000Y-125957500D02*
X90705000Y-125957500D01*
X93445000Y-118517500D02*
X93445000Y-125957500D01*
X93445000Y-118517500D02*
X90705000Y-118517500D01*
X90705000Y-118517500D02*
X90705000Y-125957500D01*
X102891250Y-64176250D02*
X102891250Y-64046250D01*
X102891250Y-61236250D02*
X102891250Y-61366250D01*
X98471250Y-61236250D02*
X98471250Y-64176250D01*
X98351250Y-61236250D02*
X98351250Y-64176250D01*
X98231250Y-61236250D02*
X98231250Y-64176250D01*
X97451250Y-64176250D02*
X102891250Y-64176250D01*
X97451250Y-64046250D02*
X97451250Y-64176250D01*
X97451250Y-61366250D02*
X97451250Y-61236250D01*
X97451250Y-61236250D02*
X102891250Y-61236250D01*
X134926250Y-111670000D02*
X130186250Y-111670000D01*
X134926250Y-104230000D02*
X134926250Y-111670000D01*
X134926250Y-104230000D02*
X130186250Y-104230000D01*
X130186250Y-104230000D02*
X130186250Y-111670000D01*
X91376250Y-56018750D02*
G75*
G02*
X84836250Y-56018750I-3270000J0D01*
G01*
X84836250Y-56018750D02*
G75*
G02*
X91376250Y-56018750I3270000J0D01*
G01*
X89146250Y-55778750D02*
X91328250Y-55778750D01*
X89146250Y-55738750D02*
X91324250Y-55738750D01*
X89146250Y-55698750D02*
X91321250Y-55698750D01*
X89146250Y-55658750D02*
X91317250Y-55658750D01*
X89146250Y-55618750D02*
X91312250Y-55618750D01*
X89146250Y-55578750D02*
X91307250Y-55578750D01*
X89146250Y-55538750D02*
X91301250Y-55538750D01*
X89146250Y-55498750D02*
X91295250Y-55498750D01*
X89146250Y-55458750D02*
X91288250Y-55458750D01*
X89146250Y-55418750D02*
X91281250Y-55418750D01*
X89146250Y-55378750D02*
X91273250Y-55378750D01*
X89146250Y-55338750D02*
X91265250Y-55338750D01*
X89146250Y-55297750D02*
X91256250Y-55297750D01*
X89146250Y-55257750D02*
X91247250Y-55257750D01*
X89146250Y-55217750D02*
X91237250Y-55217750D01*
X89146250Y-55177750D02*
X91227250Y-55177750D01*
X89146250Y-55137750D02*
X91216250Y-55137750D01*
X89146250Y-55097750D02*
X91204250Y-55097750D01*
X89146250Y-55057750D02*
X91192250Y-55057750D01*
X89146250Y-55017750D02*
X91180250Y-55017750D01*
X89146250Y-54977750D02*
X91167250Y-54977750D01*
X89146250Y-54937750D02*
X91153250Y-54937750D01*
X89146250Y-54897750D02*
X91139250Y-54897750D01*
X89146250Y-54857750D02*
X91124250Y-54857750D01*
X89146250Y-54817750D02*
X91108250Y-54817750D01*
X89146250Y-54777750D02*
X91092250Y-54777750D01*
X89146250Y-54737750D02*
X91076250Y-54737750D01*
X89146250Y-54697750D02*
X91058250Y-54697750D01*
X89146250Y-54657750D02*
X91040250Y-54657750D01*
X89146250Y-54617750D02*
X91022250Y-54617750D01*
X89146250Y-54577750D02*
X91002250Y-54577750D01*
X89146250Y-54537750D02*
X90982250Y-54537750D01*
X89146250Y-54497750D02*
X90962250Y-54497750D01*
X89146250Y-54457750D02*
X90940250Y-54457750D01*
X89146250Y-54417750D02*
X90918250Y-54417750D01*
X89146250Y-54377750D02*
X90896250Y-54377750D01*
X89146250Y-54337750D02*
X90872250Y-54337750D01*
X89146250Y-54297750D02*
X90848250Y-54297750D01*
X89146250Y-54257750D02*
X90822250Y-54257750D01*
X89146250Y-54217750D02*
X90796250Y-54217750D01*
X89146250Y-54177750D02*
X90770250Y-54177750D01*
X89146250Y-54137750D02*
X90742250Y-54137750D01*
X89146250Y-54097750D02*
X90713250Y-54097750D01*
X89146250Y-54057750D02*
X90684250Y-54057750D01*
X89146250Y-54017750D02*
X90654250Y-54017750D01*
X89146250Y-53977750D02*
X90622250Y-53977750D01*
X89146250Y-53937750D02*
X90590250Y-53937750D01*
X89146250Y-53897750D02*
X90556250Y-53897750D01*
X89146250Y-53857750D02*
X90522250Y-53857750D01*
X89146250Y-53817750D02*
X90486250Y-53817750D01*
X89146250Y-53777750D02*
X90449250Y-53777750D01*
X89146250Y-53737750D02*
X90411250Y-53737750D01*
X87704250Y-52777750D02*
X88508250Y-52777750D01*
X87473250Y-52817750D02*
X88739250Y-52817750D01*
X87304250Y-52857750D02*
X88908250Y-52857750D01*
X87166250Y-52897750D02*
X89046250Y-52897750D01*
X87047250Y-52937750D02*
X89165250Y-52937750D01*
X86941250Y-52977750D02*
X89271250Y-52977750D01*
X86844250Y-53017750D02*
X89368250Y-53017750D01*
X86756250Y-53057750D02*
X89456250Y-53057750D01*
X86674250Y-53097750D02*
X89538250Y-53097750D01*
X86597250Y-53137750D02*
X89615250Y-53137750D01*
X86525250Y-53177750D02*
X89687250Y-53177750D01*
X86456250Y-53217750D02*
X89756250Y-53217750D01*
X86392250Y-53257750D02*
X89820250Y-53257750D01*
X86330250Y-53297750D02*
X89882250Y-53297750D01*
X86272250Y-53337750D02*
X89940250Y-53337750D01*
X86267250Y-59518991D02*
X86267250Y-58888991D01*
X86216250Y-53377750D02*
X89996250Y-53377750D01*
X86162250Y-53417750D02*
X90050250Y-53417750D01*
X86111250Y-53457750D02*
X90101250Y-53457750D01*
X86062250Y-53497750D02*
X90150250Y-53497750D01*
X86014250Y-53537750D02*
X90198250Y-53537750D01*
X85969250Y-53577750D02*
X90243250Y-53577750D01*
X85952250Y-59203991D02*
X86582250Y-59203991D01*
X85924250Y-53617750D02*
X90288250Y-53617750D01*
X85882250Y-53657750D02*
X90330250Y-53657750D01*
X85841250Y-53697750D02*
X90371250Y-53697750D01*
X85801250Y-53737750D02*
X87066250Y-53737750D01*
X85763250Y-53777750D02*
X87066250Y-53777750D01*
X85726250Y-53817750D02*
X87066250Y-53817750D01*
X85690250Y-53857750D02*
X87066250Y-53857750D01*
X85656250Y-53897750D02*
X87066250Y-53897750D01*
X85622250Y-53937750D02*
X87066250Y-53937750D01*
X85590250Y-53977750D02*
X87066250Y-53977750D01*
X85558250Y-54017750D02*
X87066250Y-54017750D01*
X85528250Y-54057750D02*
X87066250Y-54057750D01*
X85499250Y-54097750D02*
X87066250Y-54097750D01*
X85470250Y-54137750D02*
X87066250Y-54137750D01*
X85442250Y-54177750D02*
X87066250Y-54177750D01*
X85416250Y-54217750D02*
X87066250Y-54217750D01*
X85390250Y-54257750D02*
X87066250Y-54257750D01*
X85364250Y-54297750D02*
X87066250Y-54297750D01*
X85340250Y-54337750D02*
X87066250Y-54337750D01*
X85316250Y-54377750D02*
X87066250Y-54377750D01*
X85294250Y-54417750D02*
X87066250Y-54417750D01*
X85272250Y-54457750D02*
X87066250Y-54457750D01*
X85250250Y-54497750D02*
X87066250Y-54497750D01*
X85230250Y-54537750D02*
X87066250Y-54537750D01*
X85210250Y-54577750D02*
X87066250Y-54577750D01*
X85190250Y-54617750D02*
X87066250Y-54617750D01*
X85172250Y-54657750D02*
X87066250Y-54657750D01*
X85154250Y-54697750D02*
X87066250Y-54697750D01*
X85136250Y-54737750D02*
X87066250Y-54737750D01*
X85120250Y-54777750D02*
X87066250Y-54777750D01*
X85104250Y-54817750D02*
X87066250Y-54817750D01*
X85088250Y-54857750D02*
X87066250Y-54857750D01*
X85073250Y-54897750D02*
X87066250Y-54897750D01*
X85059250Y-54937750D02*
X87066250Y-54937750D01*
X85045250Y-54977750D02*
X87066250Y-54977750D01*
X85032250Y-55017750D02*
X87066250Y-55017750D01*
X85020250Y-55057750D02*
X87066250Y-55057750D01*
X85008250Y-55097750D02*
X87066250Y-55097750D01*
X84996250Y-55137750D02*
X87066250Y-55137750D01*
X84985250Y-55177750D02*
X87066250Y-55177750D01*
X84975250Y-55217750D02*
X87066250Y-55217750D01*
X84965250Y-55257750D02*
X87066250Y-55257750D01*
X84956250Y-55297750D02*
X87066250Y-55297750D01*
X84947250Y-55338750D02*
X87066250Y-55338750D01*
X84939250Y-55378750D02*
X87066250Y-55378750D01*
X84931250Y-55418750D02*
X87066250Y-55418750D01*
X84924250Y-55458750D02*
X87066250Y-55458750D01*
X84917250Y-55498750D02*
X87066250Y-55498750D01*
X84911250Y-55538750D02*
X87066250Y-55538750D01*
X84905250Y-55578750D02*
X87066250Y-55578750D01*
X84900250Y-55618750D02*
X87066250Y-55618750D01*
X84895250Y-55658750D02*
X87066250Y-55658750D01*
X84891250Y-55698750D02*
X87066250Y-55698750D01*
X84888250Y-55738750D02*
X87066250Y-55738750D01*
X84884250Y-55778750D02*
X87066250Y-55778750D01*
X84882250Y-55818750D02*
X91330250Y-55818750D01*
X84879250Y-55858750D02*
X91333250Y-55858750D01*
X84878250Y-55898750D02*
X91334250Y-55898750D01*
X84876250Y-56018750D02*
X91336250Y-56018750D01*
X84876250Y-55978750D02*
X91336250Y-55978750D01*
X84876250Y-55938750D02*
X91336250Y-55938750D01*
X121197500Y-121862500D02*
X120547500Y-121862500D01*
X120547500Y-122982500D02*
X120547500Y-120742500D01*
X120547500Y-120742500D02*
X116307500Y-120742500D01*
X119947500Y-122982500D02*
X119947500Y-120742500D01*
X119827500Y-122982500D02*
X119827500Y-120742500D01*
X119707500Y-122982500D02*
X119707500Y-120742500D01*
X116307500Y-122982500D02*
X120547500Y-122982500D01*
X116307500Y-120742500D02*
X116307500Y-122982500D01*
X115657500Y-121862500D02*
X116307500Y-121862500D01*
X81745000Y-114020000D02*
X81745000Y-101880000D01*
X81745000Y-101880000D02*
X77005000Y-101880000D01*
X79375000Y-114130000D02*
X79375000Y-114020000D01*
X79375000Y-101770000D02*
X79375000Y-101880000D01*
X77005000Y-114020000D02*
X81745000Y-114020000D01*
X77005000Y-101880000D02*
X77005000Y-114020000D01*
X82645000Y-56018750D02*
G75*
G02*
X76105000Y-56018750I-3270000J0D01*
G01*
X76105000Y-56018750D02*
G75*
G02*
X82645000Y-56018750I3270000J0D01*
G01*
X80415000Y-55778750D02*
X82597000Y-55778750D01*
X80415000Y-55738750D02*
X82593000Y-55738750D01*
X80415000Y-55698750D02*
X82590000Y-55698750D01*
X80415000Y-55658750D02*
X82586000Y-55658750D01*
X80415000Y-55618750D02*
X82581000Y-55618750D01*
X80415000Y-55578750D02*
X82576000Y-55578750D01*
X80415000Y-55538750D02*
X82570000Y-55538750D01*
X80415000Y-55498750D02*
X82564000Y-55498750D01*
X80415000Y-55458750D02*
X82557000Y-55458750D01*
X80415000Y-55418750D02*
X82550000Y-55418750D01*
X80415000Y-55378750D02*
X82542000Y-55378750D01*
X80415000Y-55338750D02*
X82534000Y-55338750D01*
X80415000Y-55297750D02*
X82525000Y-55297750D01*
X80415000Y-55257750D02*
X82516000Y-55257750D01*
X80415000Y-55217750D02*
X82506000Y-55217750D01*
X80415000Y-55177750D02*
X82496000Y-55177750D01*
X80415000Y-55137750D02*
X82485000Y-55137750D01*
X80415000Y-55097750D02*
X82473000Y-55097750D01*
X80415000Y-55057750D02*
X82461000Y-55057750D01*
X80415000Y-55017750D02*
X82449000Y-55017750D01*
X80415000Y-54977750D02*
X82436000Y-54977750D01*
X80415000Y-54937750D02*
X82422000Y-54937750D01*
X80415000Y-54897750D02*
X82408000Y-54897750D01*
X80415000Y-54857750D02*
X82393000Y-54857750D01*
X80415000Y-54817750D02*
X82377000Y-54817750D01*
X80415000Y-54777750D02*
X82361000Y-54777750D01*
X80415000Y-54737750D02*
X82345000Y-54737750D01*
X80415000Y-54697750D02*
X82327000Y-54697750D01*
X80415000Y-54657750D02*
X82309000Y-54657750D01*
X80415000Y-54617750D02*
X82291000Y-54617750D01*
X80415000Y-54577750D02*
X82271000Y-54577750D01*
X80415000Y-54537750D02*
X82251000Y-54537750D01*
X80415000Y-54497750D02*
X82231000Y-54497750D01*
X80415000Y-54457750D02*
X82209000Y-54457750D01*
X80415000Y-54417750D02*
X82187000Y-54417750D01*
X80415000Y-54377750D02*
X82165000Y-54377750D01*
X80415000Y-54337750D02*
X82141000Y-54337750D01*
X80415000Y-54297750D02*
X82117000Y-54297750D01*
X80415000Y-54257750D02*
X82091000Y-54257750D01*
X80415000Y-54217750D02*
X82065000Y-54217750D01*
X80415000Y-54177750D02*
X82039000Y-54177750D01*
X80415000Y-54137750D02*
X82011000Y-54137750D01*
X80415000Y-54097750D02*
X81982000Y-54097750D01*
X80415000Y-54057750D02*
X81953000Y-54057750D01*
X80415000Y-54017750D02*
X81923000Y-54017750D01*
X80415000Y-53977750D02*
X81891000Y-53977750D01*
X80415000Y-53937750D02*
X81859000Y-53937750D01*
X80415000Y-53897750D02*
X81825000Y-53897750D01*
X80415000Y-53857750D02*
X81791000Y-53857750D01*
X80415000Y-53817750D02*
X81755000Y-53817750D01*
X80415000Y-53777750D02*
X81718000Y-53777750D01*
X80415000Y-53737750D02*
X81680000Y-53737750D01*
X78973000Y-52777750D02*
X79777000Y-52777750D01*
X78742000Y-52817750D02*
X80008000Y-52817750D01*
X78573000Y-52857750D02*
X80177000Y-52857750D01*
X78435000Y-52897750D02*
X80315000Y-52897750D01*
X78316000Y-52937750D02*
X80434000Y-52937750D01*
X78210000Y-52977750D02*
X80540000Y-52977750D01*
X78113000Y-53017750D02*
X80637000Y-53017750D01*
X78025000Y-53057750D02*
X80725000Y-53057750D01*
X77943000Y-53097750D02*
X80807000Y-53097750D01*
X77866000Y-53137750D02*
X80884000Y-53137750D01*
X77794000Y-53177750D02*
X80956000Y-53177750D01*
X77725000Y-53217750D02*
X81025000Y-53217750D01*
X77661000Y-53257750D02*
X81089000Y-53257750D01*
X77599000Y-53297750D02*
X81151000Y-53297750D01*
X77541000Y-53337750D02*
X81209000Y-53337750D01*
X77536000Y-59518991D02*
X77536000Y-58888991D01*
X77485000Y-53377750D02*
X81265000Y-53377750D01*
X77431000Y-53417750D02*
X81319000Y-53417750D01*
X77380000Y-53457750D02*
X81370000Y-53457750D01*
X77331000Y-53497750D02*
X81419000Y-53497750D01*
X77283000Y-53537750D02*
X81467000Y-53537750D01*
X77238000Y-53577750D02*
X81512000Y-53577750D01*
X77221000Y-59203991D02*
X77851000Y-59203991D01*
X77193000Y-53617750D02*
X81557000Y-53617750D01*
X77151000Y-53657750D02*
X81599000Y-53657750D01*
X77110000Y-53697750D02*
X81640000Y-53697750D01*
X77070000Y-53737750D02*
X78335000Y-53737750D01*
X77032000Y-53777750D02*
X78335000Y-53777750D01*
X76995000Y-53817750D02*
X78335000Y-53817750D01*
X76959000Y-53857750D02*
X78335000Y-53857750D01*
X76925000Y-53897750D02*
X78335000Y-53897750D01*
X76891000Y-53937750D02*
X78335000Y-53937750D01*
X76859000Y-53977750D02*
X78335000Y-53977750D01*
X76827000Y-54017750D02*
X78335000Y-54017750D01*
X76797000Y-54057750D02*
X78335000Y-54057750D01*
X76768000Y-54097750D02*
X78335000Y-54097750D01*
X76739000Y-54137750D02*
X78335000Y-54137750D01*
X76711000Y-54177750D02*
X78335000Y-54177750D01*
X76685000Y-54217750D02*
X78335000Y-54217750D01*
X76659000Y-54257750D02*
X78335000Y-54257750D01*
X76633000Y-54297750D02*
X78335000Y-54297750D01*
X76609000Y-54337750D02*
X78335000Y-54337750D01*
X76585000Y-54377750D02*
X78335000Y-54377750D01*
X76563000Y-54417750D02*
X78335000Y-54417750D01*
X76541000Y-54457750D02*
X78335000Y-54457750D01*
X76519000Y-54497750D02*
X78335000Y-54497750D01*
X76499000Y-54537750D02*
X78335000Y-54537750D01*
X76479000Y-54577750D02*
X78335000Y-54577750D01*
X76459000Y-54617750D02*
X78335000Y-54617750D01*
X76441000Y-54657750D02*
X78335000Y-54657750D01*
X76423000Y-54697750D02*
X78335000Y-54697750D01*
X76405000Y-54737750D02*
X78335000Y-54737750D01*
X76389000Y-54777750D02*
X78335000Y-54777750D01*
X76373000Y-54817750D02*
X78335000Y-54817750D01*
X76357000Y-54857750D02*
X78335000Y-54857750D01*
X76342000Y-54897750D02*
X78335000Y-54897750D01*
X76328000Y-54937750D02*
X78335000Y-54937750D01*
X76314000Y-54977750D02*
X78335000Y-54977750D01*
X76301000Y-55017750D02*
X78335000Y-55017750D01*
X76289000Y-55057750D02*
X78335000Y-55057750D01*
X76277000Y-55097750D02*
X78335000Y-55097750D01*
X76265000Y-55137750D02*
X78335000Y-55137750D01*
X76254000Y-55177750D02*
X78335000Y-55177750D01*
X76244000Y-55217750D02*
X78335000Y-55217750D01*
X76234000Y-55257750D02*
X78335000Y-55257750D01*
X76225000Y-55297750D02*
X78335000Y-55297750D01*
X76216000Y-55338750D02*
X78335000Y-55338750D01*
X76208000Y-55378750D02*
X78335000Y-55378750D01*
X76200000Y-55418750D02*
X78335000Y-55418750D01*
X76193000Y-55458750D02*
X78335000Y-55458750D01*
X76186000Y-55498750D02*
X78335000Y-55498750D01*
X76180000Y-55538750D02*
X78335000Y-55538750D01*
X76174000Y-55578750D02*
X78335000Y-55578750D01*
X76169000Y-55618750D02*
X78335000Y-55618750D01*
X76164000Y-55658750D02*
X78335000Y-55658750D01*
X76160000Y-55698750D02*
X78335000Y-55698750D01*
X76157000Y-55738750D02*
X78335000Y-55738750D01*
X76153000Y-55778750D02*
X78335000Y-55778750D01*
X76151000Y-55818750D02*
X82599000Y-55818750D01*
X76148000Y-55858750D02*
X82602000Y-55858750D01*
X76147000Y-55898750D02*
X82603000Y-55898750D01*
X76145000Y-56018750D02*
X82605000Y-56018750D01*
X76145000Y-55978750D02*
X82605000Y-55978750D01*
X76145000Y-55938750D02*
X82605000Y-55938750D01*
X121197500Y-125412500D02*
X120547500Y-125412500D01*
X120547500Y-126532500D02*
X120547500Y-124292500D01*
X120547500Y-124292500D02*
X116307500Y-124292500D01*
X117147500Y-124292500D02*
X117147500Y-126532500D01*
X117027500Y-124292500D02*
X117027500Y-126532500D01*
X116907500Y-124292500D02*
X116907500Y-126532500D01*
X116307500Y-126532500D02*
X120547500Y-126532500D01*
X116307500Y-124292500D02*
X116307500Y-126532500D01*
X115657500Y-125412500D02*
X116307500Y-125412500D01*
X75395000Y-114020000D02*
X75395000Y-101880000D01*
X75395000Y-101880000D02*
X70655000Y-101880000D01*
X73025000Y-114130000D02*
X73025000Y-114020000D01*
X73025000Y-101770000D02*
X73025000Y-101880000D01*
X70655000Y-114020000D02*
X75395000Y-114020000D01*
X70655000Y-101880000D02*
X70655000Y-114020000D01*
D13*
X115981250Y-79375000D02*
G75*
G02*
X91981250Y-79375000I-12000000J0D01*
G01*
X91981250Y-79375000D02*
G75*
G02*
X115981250Y-79375000I12000000J0D01*
G01*
X110481250Y-74375000D02*
X110481250Y-88375000D01*
X97481250Y-88375000D02*
X110481250Y-88375000D01*
X97481250Y-88375000D02*
X97481250Y-74375000D01*
X97481250Y-74375000D02*
X110481250Y-74375000D01*
D14*
X108581250Y-57700000D02*
X106481250Y-57700000D01*
X108581250Y-43200000D02*
X108581250Y-57700000D01*
X101481250Y-57700000D02*
X99381250Y-57700000D01*
X99381250Y-57700000D02*
X99381250Y-55800000D01*
X99381250Y-51800000D02*
X99381250Y-43200000D01*
X99381250Y-43200000D02*
X108581250Y-43200000D01*
X124307500Y-114020000D02*
X124307500Y-101880000D01*
X124307500Y-101880000D02*
X119567500Y-101880000D01*
X121937500Y-114130000D02*
X121937500Y-114020000D01*
X121937500Y-101770000D02*
X121937500Y-101880000D01*
X119567500Y-114020000D02*
X124307500Y-114020000D01*
X119567500Y-101880000D02*
X119567500Y-114020000D01*
X139482500Y-111670000D02*
X136742500Y-111670000D01*
X139482500Y-104230000D02*
X139482500Y-111670000D01*
X139482500Y-104230000D02*
X136742500Y-104230000D01*
X136742500Y-104230000D02*
X136742500Y-111670000D01*
%LPC*%
D16*
X71550000Y-79375000D03*
X80850000Y-79375000D03*
D17*
X78700000Y-86875000D03*
X76200000Y-86875000D03*
X73700000Y-86875000D03*
D18*
X85725000Y-124737500D03*
X85725000Y-119737500D03*
D19*
X92075000Y-115570000D03*
D20*
X92075000Y-100330000D03*
D21*
X127000000Y-113030000D03*
D18*
X127000000Y-102870000D03*
D22*
X106362500Y-127793750D03*
X106362500Y-123093750D03*
X106362500Y-118393750D03*
X101532500Y-118393750D03*
X101532500Y-123093750D03*
D23*
X101532500Y-127793750D03*
D24*
X82600000Y-137150000D03*
D25*
X73700000Y-146050000D03*
X76700000Y-133250000D03*
D24*
X69800000Y-140150000D03*
D26*
X80937615Y-144387615D03*
D19*
X115887500Y-100330000D03*
D20*
X115887500Y-115570000D03*
D18*
X127675000Y-123825000D03*
X132675000Y-123825000D03*
D16*
X127000000Y-79375000D03*
X136300000Y-79375000D03*
D17*
X134150000Y-86875000D03*
X131650000Y-86875000D03*
X129150000Y-86875000D03*
D19*
X85725000Y-115570000D03*
D20*
X85725000Y-100330000D03*
D21*
X109061250Y-96043750D03*
D18*
X98901250Y-96043750D03*
X120768750Y-94456250D03*
X115768750Y-94456250D03*
D27*
X107791250Y-103981250D03*
X107791250Y-106521250D03*
X107791250Y-109061250D03*
X107791250Y-111601250D03*
X100171250Y-111601250D03*
X100171250Y-109061250D03*
X100171250Y-106521250D03*
D28*
X100171250Y-103981250D03*
D24*
X138050000Y-137200000D03*
D25*
X129150000Y-146100000D03*
X132150000Y-133300000D03*
D24*
X125250000Y-140200000D03*
D26*
X136387615Y-144437615D03*
D18*
X92075000Y-124737500D03*
X92075000Y-119737500D03*
D29*
X103981250Y-62706250D03*
D30*
X96361250Y-62706250D03*
D18*
X132556250Y-110450000D03*
X132556250Y-105450000D03*
X88106250Y-54768750D03*
D31*
X88106250Y-57268750D03*
D21*
X114617500Y-121862500D03*
D31*
X122237500Y-121862500D03*
D19*
X79375000Y-115570000D03*
D20*
X79375000Y-100330000D03*
D18*
X79375000Y-54768750D03*
D31*
X79375000Y-57268750D03*
D21*
X122237500Y-125412500D03*
D31*
X114617500Y-125412500D03*
D19*
X73025000Y-100330000D03*
D20*
X73025000Y-115570000D03*
D16*
X99331250Y-79375000D03*
X108631250Y-79375000D03*
D17*
X106481250Y-86875000D03*
X103981250Y-86875000D03*
X101481250Y-86875000D03*
D32*
X99181250Y-53800000D03*
D33*
X103981250Y-50800000D03*
D34*
X103981250Y-56800000D03*
D19*
X121937500Y-100330000D03*
D20*
X121937500Y-115570000D03*
D18*
X138112500Y-110450000D03*
X138112500Y-105450000D03*
%LPD*%
M02*
