M48
; DRILL file {KiCad 8.0.6} date 2024-11-08T07:02:59-0500
; FORMAT={-:-/ absolute / inch / decimal}
; #@! TF.CreationDate,2024-11-08T07:02:59-05:00
; #@! TF.GenerationSoftware,Kicad,Pcbnew,8.0.6
; #@! TF.FileFunction,Plated,1,2,PTH
FMAT,2
INCH
; #@! TA.AperFunction,Plated,PTH,ComponentDrill
T1C0.0315
; #@! TA.AperFunction,Plated,PTH,ComponentDrill
T2C0.0340
; #@! TA.AperFunction,Plated,PTH,ComponentDrill
T3C0.0394
; #@! TA.AperFunction,Plated,PTH,ComponentDrill
T4C0.0433
; #@! TA.AperFunction,Plated,PTH,ComponentDrill
T5C0.0472
; #@! TA.AperFunction,Plated,PTH,ComponentDrill
T6C0.0551
%
G90
G05
T1
X3.125Y-2.1562
X3.125Y-2.2547
X3.375Y-4.7141
X3.375Y-4.9109
X3.4688Y-2.1562
X3.4688Y-2.2547
X3.625Y-4.7141
X3.625Y-4.9109
X3.8937Y-3.7812
X4.2938Y-3.7812
X4.5125Y-4.7977
X4.5125Y-4.9375
X4.5578Y-3.7188
X4.7547Y-3.7188
X4.8125Y-4.7977
X4.8125Y-4.9375
X5.0Y-4.05
X5.0Y-4.45
X5.0266Y-4.875
X5.2188Y-4.1516
X5.2188Y-4.3484
X5.2234Y-4.875
X5.4375Y-4.1516
X5.4375Y-4.3484
T2
X3.9438Y-4.0938
X3.9438Y-4.1937
X3.9438Y-4.2938
X3.9438Y-4.3937
X4.2437Y-4.0938
X4.2437Y-4.1937
X4.2437Y-4.2938
X4.2437Y-4.3937
T4
X2.9016Y-3.4203
X3.0Y-3.4203
X3.0984Y-3.4203
X3.7937Y-2.4688
X3.9953Y-3.4203
X4.0938Y-2.4688
X4.0938Y-3.4203
X4.1922Y-3.4203
X5.0846Y-3.4203
X5.1831Y-3.4203
X5.2815Y-3.4203
T5
X2.875Y-3.95
X2.875Y-4.55
X3.125Y-3.95
X3.125Y-4.55
X3.375Y-3.95
X3.375Y-4.55
X3.625Y-3.95
X3.625Y-4.55
X4.5625Y-3.95
X4.5625Y-4.55
X4.8007Y-3.95
X4.8007Y-4.55
T3
G00X2.748Y-5.5472
M15
G01X2.748Y-5.4882
M16
G05
G00X2.872Y-5.75
M15
G01X2.9311Y-5.75
M16
G05
G00X2.9902Y-5.2461
M15
G01X3.0492Y-5.2461
M16
G05
G00X3.1656Y-5.7054
M15
G01X3.2074Y-5.6637
M16
G05
G00X3.252Y-5.3701
M15
G01X3.252Y-5.4291
M16
G05
G00X3.9048Y-2.0787
M15
G01X3.9048Y-2.1575
M16
G05
G00X4.1331Y-2.0
M15
G01X4.0544Y-2.0
M16
G05
G00X4.143Y-2.2362
M15
G01X4.0445Y-2.2362
M16
G05
G00X4.9311Y-5.5492
M15
G01X4.9311Y-5.4902
M16
G05
G00X5.0551Y-5.752
M15
G01X5.1142Y-5.752
M16
G05
G00X5.1732Y-5.248
M15
G01X5.2323Y-5.248
M16
G05
G00X5.3487Y-5.7074
M15
G01X5.3905Y-5.6656
M16
G05
G00X5.435Y-5.372
M15
G01X5.435Y-5.4311
M16
G05
T5
G00X3.9698Y-4.6612
M15
G01X4.0249Y-4.6612
M16
G05
G00X3.9698Y-4.8462
M15
G01X4.0249Y-4.8462
M16
G05
G00X3.9698Y-5.0312
M15
G01X4.0249Y-5.0312
M16
G05
G00X4.1599Y-4.6612
M15
G01X4.2151Y-4.6612
M16
G05
G00X4.1599Y-4.8462
M15
G01X4.2151Y-4.8462
M16
G05
G00X4.1599Y-5.0312
M15
G01X4.2151Y-5.0312
M16
G05
T6
G00X2.8287Y-3.125
M15
G01X2.8051Y-3.125
M16
G05
G00X3.1949Y-3.125
M15
G01X3.1713Y-3.125
M16
G05
G00X3.9225Y-3.125
M15
G01X3.8989Y-3.125
M16
G05
G00X4.2886Y-3.125
M15
G01X4.265Y-3.125
M16
G05
G00X5.0118Y-3.125
M15
G01X4.9882Y-3.125
M16
G05
G00X5.378Y-3.125
M15
G01X5.3543Y-3.125
M16
G05
M30
